<svg width="523" height="622" viewBox="0 0 523 622" fill="none" xmlns="http://www.w3.org/2000/svg">
  <path d="M261 605.5C87.2646 490.665 27.0672 394.323 21 135.5C124.678 128.622 176.926 106.91 261 40.5C338.648 111.813 391.308 136.47 512 135.5C478.329 388.234 422.904 490.63 261 605.5Z" fill="#D9D9D9" stroke="black"/>
  <path d="M261.8 0.466699C261.4 1.53337 261 15 261 30.3334V58.0667L272.067 68.4667C308.333 102.6 348.733 126.2 393.667 139.133C417.4 146.067 437.133 149.133 463.4 149.933L486.333 150.733V157.533C486.333 170.467 483.667 207 481.667 222.333C468.467 321 430.067 411.8 369.8 487C355.667 504.467 326.6 533.533 309 547.667C295.667 558.333 264.467 579.667 262.067 579.667C260.6 579.667 260.733 620.733 262.333 621.667C266.733 624.333 314.333 593.4 342.333 569.667C358.2 556.067 388.867 524.333 402.733 507C464.733 429.533 505.4 331.933 520.067 225.667C522.6 207 523 198.333 523 156.733C523 130.6 522.6 108.733 522.067 108.333C521.533 107.8 516.067 108.2 510.067 109.133C502.867 110.333 488.6 111 469.667 111C443.133 110.867 438.733 110.6 423.533 107.267C362.733 94.3334 309.133 59.9334 271.133 9.53337C264.867 1.40003 262.467 -1.1333 261.8 0.466699Z" fill="#4A4A4A"/>
  <path d="M261.2 0.466699C261.6 1.53337 262 15 262 30.3334V58.0667L250.933 68.4667C214.667 102.6 174.267 126.2 129.333 139.133C105.6 146.067 85.8667 149.133 59.6 149.933L36.6667 150.733V157.533C36.6667 170.467 39.3333 207 41.3333 222.333C54.5333 321 92.9333 411.8 153.2 487C167.333 504.467 196.4 533.533 214 547.667C227.333 558.333 258.533 579.667 260.933 579.667C262.4 579.667 262.267 620.733 260.667 621.667C256.267 624.333 208.667 593.4 180.667 569.667C164.8 556.067 134.133 524.333 120.267 507C58.2667 429.533 17.6 331.933 2.93332 225.667C0.399986 207 -1.36644e-05 198.333 -1.36644e-05 156.733C-1.36644e-05 130.6 0.399986 108.733 0.93332 108.333C1.46665 107.8 6.93332 108.2 12.9333 109.133C20.1333 110.333 34.4 111 53.3333 111C79.8667 110.867 84.2667 110.6 99.4667 107.267C160.267 94.3334 213.867 59.9334 251.867 9.53337C258.133 1.40003 260.533 -1.1333 261.2 0.466699Z" fill="#606060"/>
  <path d="M261 192.2V269.933L286.067 270.733C329.4 272.067 372.867 280.6 408.2 294.467C415.4 297.4 421.933 299.667 422.867 299.667C423.667 299.667 425.267 296.867 426.2 293.267C427.133 289.8 428.733 284.333 429.8 281C434.333 266.2 442.067 222.067 444.467 198.2L445.267 189.533L429 187.267C402.067 183.4 366.733 173.8 347 165C315.4 150.733 296.467 139.667 272.467 121.4C267.4 117.533 262.733 114.333 262.067 114.333C261.533 114.333 261 149.4 261 192.2Z" fill="#606060"/>
  <path d="M262.265 192.2V269.933L237.198 270.733C193.865 272.067 150.398 280.6 115.065 294.467C107.865 297.4 101.331 299.667 100.398 299.667C99.598 299.667 97.998 296.867 97.0647 293.267C96.1313 289.8 94.5313 284.333 93.4647 281C88.9313 266.2 81.198 222.067 78.798 198.2L77.998 189.533L94.2647 187.267C121.198 183.4 156.531 173.8 176.265 165C207.865 150.733 226.798 139.667 250.798 121.4C255.865 117.533 260.531 114.333 261.198 114.333C261.731 114.333 262.265 149.4 262.265 192.2Z" fill="#4A4A4A"/>
  <path d="M261 420.733C261 483.267 261.4 534.333 261.933 534.333C263.667 534.333 287.267 515.8 299.8 504.733C337.4 471.133 376.733 417 399.667 367L404.733 355.933L401.933 353.267C396.333 348.2 375.533 335.4 363.133 329.533C337 317.133 307.667 309.933 277 308.2L261 307.267V420.733Z" fill="#606060"/>
  <path d="M261.733 420.733C261.733 483.267 261.333 534.333 260.8 534.333C259.067 534.333 235.467 515.8 222.933 504.733C185.333 471.133 146 417 123.067 367L118 355.933L120.8 353.267C126.4 348.2 147.2 335.4 159.6 329.533C185.733 317.133 215.067 309.933 245.733 308.2L261.733 307.267V420.733Z" fill="#4A4A4A"/>
</svg>


